<svg xmlns="http://www.w3.org/2000/svg" viewBox="0 0 200 44.2"><title>logo</title><path d="M25.9,13.9A11.5,11.5,0,0,0,21,10.2a18.5,18.5,0,0,0-7.1-1.2,26.4,26.4,0,0,0-5.4.6l-3.3.9L4,10.8,7.5,16l1.2-.5a19.5,19.5,0,0,1,5.2-.7c2.6,0,4.5.5,5.7,1.6s1.7,2.7,1.7,5.1H14.9c-4.8,0-8.5,1-11,2.9S0,29.4,0,33.2a10.5,10.5,0,0,0,3.2,7.9,11.7,11.7,0,0,0,8.3,3,13.9,13.9,0,0,0,6.6-1.4A10.9,10.9,0,0,0,21.3,40v3.1H28V24.2a33.1,33.1,0,0,0-.5-6.5A9.7,9.7,0,0,0,25.9,13.9ZM21.3,27.6c0,3.4-.8,6-2.4,7.9a7.7,7.7,0,0,1-6.3,2.8,6.3,6.3,0,0,1-4.4-1.4,5.1,5.1,0,0,1-1.5-4,4.8,4.8,0,0,1,2-4.3c1.4-1,3.6-1.5,6.6-1.5h6Z" fill="#ec0086"/><path d="M150.1,0V13.2l-1.1-.8A18.4,18.4,0,0,0,137.7,9c-10.6,0-17.7,9.1-17.7,17.6s6.5,17.6,17.3,17.6a19.1,19.1,0,0,0,11.4-3.4l1.3-1.1v3.5h5.6V6.3L151.5,0ZM138.3,39a12.4,12.4,0,1,1,12-12.4A12.3,12.3,0,0,1,138.3,39Z" fill="#000"/><polygon points="162 9 162 43.2 167.7 43.2 167.7 15.3 163.5 9 162 9" fill="#000"/><path d="M67.3,9c-4.6,0-8.6,1.9-10.6,5C54.6,10.8,50.7,9,46,9a11.8,11.8,0,0,0-6.3,1.8V9.9H34.1V28.3l4.2,6.3h1.4V22.1c0-5,3.4-7.5,6.8-7.5s7.3.8,7.3,8.6v20h5.6v-20c0-7.8,5.1-8.6,7.3-8.6s6.8,2.6,6.8,7.6v21h5.6V22.1C79.2,13.1,73,9,67.3,9Z" fill="#000"/><path d="M199.5,17.6a9.3,9.3,0,0,0-1.6-3.7,11.2,11.2,0,0,0-4.8-3.7A18.5,18.5,0,0,0,186,9a26.6,26.6,0,0,0-5.4.6,36.6,36.6,0,0,0-4.4,1.2l3.1,4.6,1.4-.4a20.9,20.9,0,0,1,5.7-.8q4.4,0,6.4,1.8c1.3,1.2,1.8,2.7,1.8,5.3v.9h-7.4q-7.3,0-11,2.9t-3.8,8.5a10.1,10.1,0,0,0,3.1,7.7,11.4,11.4,0,0,0,8.2,2.9c2.6,0,5.1-.2,6.9-1.2a10.1,10.1,0,0,0,4-3.6v3.8H200v-19A33.6,33.6,0,0,0,199.5,17.6Zm-5.1,10.3h0c0,3.6-.8,5.5-2.5,7.6a9.4,9.4,0,0,1-7.3,3.6c-2.2,0-3.9-.2-5.1-1.4a4.9,4.9,0,0,1-1.6-3.8,4.6,4.6,0,0,1,2.1-4.3c1.6-1.1,4.2-1.6,7.4-1.6h7v0Z" fill="#000"/><path d="M100.6,39c-5.9,0-10.6-3.9-11.9-9.8v-1h28.6V27.1c-.3-11.9-8.3-18.1-16-18.1C89.2,9,82.7,18,82.7,26.6s6.5,17.6,18.5,17.6h0A19.7,19.7,0,0,0,112,40.4a15.6,15.6,0,0,0,3.2-3.3l.2-.3a21.6,21.6,0,0,0,1.5-2.5h-5.7A13.4,13.4,0,0,1,100.6,39ZM89,22.9a11,11,0,0,1,11.2-8.8,11.2,11.2,0,0,1,11.3,8.5v.7H88.9Z" fill="#000"/></svg>